<?xml version="1.0" encoding="UTF-8"?>
<!DOCTYPE svg PUBLIC "-//W3C//DTD SVG 1.1//EN" "http://www.w3.org/Graphics/SVG/1.1/DTD/svg11.dtd">
<!-- Creator: CorelDRAW 2019 (64-Bit) -->
<svg xmlns="http://www.w3.org/2000/svg" xml:space="preserve" width="200mm" height="200mm" version="1.1" style="shape-rendering:geometricPrecision; text-rendering:geometricPrecision; image-rendering:optimizeQuality; fill-rule:evenodd; clip-rule:evenodd"
viewBox="0 0 20000 20000"
 xmlns:xlink="http://www.w3.org/1999/xlink"
 xmlns:xodm="http://www.corel.com/coreldraw/odm/2003">
 <defs>
  <style type="text/css">
   <![CDATA[
    .fil0 {fill:black}
    .fil1 {fill:#FDC54E}
    .fil2 {fill:#FFFFFE}
   ]]>
  </style>
 </defs>
 <g id="Слой_x0020_1">
  <metadata id="CorelCorpID_0Corel-Layer"/>
  <g id="_1809337801760">
   <path class="fil0" d="M14501.82 12686.11c888.5,-591.15 1106.25,-1350.22 1524.52,-1359.98 259.21,-6.05 439.04,288.63 363.36,573.2 -210.55,791.65 -1161.62,1599.49 -2040.41,1789.33 101.31,-420.94 127.15,-534.41 152.53,-1002.55zm-605.12 -1232.34c99.48,289.32 229.65,947.62 240.39,1300.82 27.13,892.6 -417.36,1539.65 -1185.71,1901.61 -319.19,150.36 -811.41,300.96 -1200.57,357.65l407.15 -673c88.92,-169.77 467.29,-736.25 -33.45,-685.35 -121.35,151.04 -174.96,320.19 -266.2,489.36 -337.84,626.37 -1513.07,2192.37 -1906.37,1031.71 -217.8,-642.75 8.23,-1250.29 -372.09,-1118.06 -226.34,78.69 -22.8,645.6 -285.53,1225.88 -392.92,867.81 -1355.55,-336.08 -1640.54,-773.6 -101.88,-156.41 -189.68,-308.78 -280.39,-487.11 -103.33,-203.11 -100.77,-400.8 -379.3,-366.77 -122.59,152.79 -112.3,155.26 -26.55,348.84 215.3,486.02 390.02,657.24 570.76,1006.53 -491.31,-69.53 -1157.39,-293.6 -1507.43,-519.32 -344.51,-222.16 -694.19,-629.32 -820.08,-1163.8 -220.49,-936.08 279.45,-1820.54 293.08,-2585.35 6.61,-370.87 -101.3,-545.69 -157.7,-859.72 209.79,-3.64 414.85,-2.74 624.12,15.52 237.44,20.72 373.43,32.6 341.92,-250.39 -242.2,-198.49 -735.4,-95.96 -1078.46,-128.32l-48.83 -352.47c259.69,26.78 843.22,210.04 1025.59,169.02 140.18,-154.44 97.96,-289.75 -125.45,-349.34 -115.01,-30.68 -399.5,-77.19 -475,-129.34l-423.1 -60.33c-52.03,-408.03 209.24,-1308.2 322.72,-1672.5 42.2,-616.34 -137.5,-1425.52 115.21,-2205.18 294.09,-907.33 981.47,-331.57 1382.47,-4.42 467.27,381.23 325.39,460.05 692.79,279.79 901.86,-442.5 1840.6,-649.06 2856.95,-390.12 1435.49,365.72 1053.85,745.42 1593.62,236.22 279.38,-263.56 1065.19,-1029.51 1438.07,-303.98 249.75,485.94 241.37,1499.61 200.19,2096.97 -34.2,496.07 391.61,1349.39 321.78,1966.1 -237.95,34.04 -463.7,77.83 -690.81,130.99 -260.34,60.93 -468.23,55.95 -389.98,367.36 174.13,108.21 269.97,27.56 494.84,-26.01 184.46,-43.94 384.33,-84.75 589.02,-104.66l-72.75 352.7c-241.36,18.01 -985.54,-55.69 -1057.22,146.12 -122.83,345.83 450.61,206.52 961.8,216.39 -158.86,838.21 -249.09,519.04 -48.96,1569.56zm-8773.31 -5685.13l4.53 1354.03c-53.33,177.62 -98.6,319.48 -147.55,514.06 -46.14,183.41 -73.56,330.92 -106.48,528.6 -28.69,172.29 -68.04,415.03 -68.04,593.52 -119.67,-2.67 -105.16,-26.47 -238.16,-26.47 -217.66,0 -1349.56,-50.57 -1349.56,211.7 0,179.54 8.12,105.28 79.39,211.7 333.47,0 667.4,-52.93 1111.4,-52.93 176,0 229.06,26.46 396.93,26.46 20.64,88.6 52.92,320.66 52.92,423.4 -335.27,0 -753.1,101.87 -1042.92,174.32 -213.94,53.48 -578.43,123.22 -560.28,321.3 26.68,291.12 386.51,116.83 533.26,75.07 128.52,-36.57 240.74,-61.06 360.55,-89.3 230.03,-54.24 546.47,-110.93 815.24,-110.93 152.23,653.41 264.72,614.11 68.96,1392.06 -189.05,751.27 -407.17,1586.38 -95.95,2366.07 93.09,233.21 234.04,492.44 391.22,667.26 406.35,451.96 702.08,617.42 1319.33,824.1 275.4,92.21 533.95,158.18 848.79,209.68 766.21,125.34 229.18,-11.51 753.7,331.25 207.61,135.66 474.08,273.49 785.75,214.34 272.28,-51.67 532.4,-272.69 585.51,-500.66l52.93 0c107.16,459.97 766.19,734.44 1384.15,272.75 73.27,-54.74 144.19,-102.93 209.04,-161.43 106.69,-96.26 76.72,-88.31 254.5,-115.97 437.8,-68.13 793.54,-139.15 1185.55,-269.86 529.46,-176.54 1002.49,-446.38 1313.93,-882.42 154.82,-216.77 141.4,-107.91 505.91,-235.02 844.04,-294.34 1640.17,-829.19 2045.04,-1633.17 158.26,-314.26 193.69,-396.35 193.69,-706.02 0,-374.2 -347.87,-740.94 -714.47,-740.94 -726.53,0 -1021.6,1023.55 -1587.72,1323.1 -8.84,-396.69 -317.55,-1218.53 -317.55,-1561.26 0,-287.21 129.96,-556.59 185.24,-793.86 1102.92,0 1693.56,595.29 1693.56,79.39 0,-245.56 -1332.91,-449.85 -1587.72,-449.85l26.47 -423.4 635.08 -26.46c337.09,0 568.17,52.93 899.71,52.93 202.13,-301.86 2.8,-353.43 -298.12,-389.89 -355.56,-43.09 -666.42,-33.51 -1024.98,-33.51 -91.23,0 -102.46,19.58 -185.23,26.47 -35.67,-428.65 -106.51,-821.86 -201.08,-1201.41 -26.86,-107.81 -40.35,-170.14 -73.47,-270.54 -126.52,-383.58 -43,-471.42 -43,-962.56 0,-864.45 -18.06,-2249.27 -1032.01,-2249.27 -440.27,0 -1187.89,578.89 -1349.56,820.33 -1420.4,-751.58 -2855.07,-757.61 -4286.85,0 -61.74,-92.2 -452.54,-428.48 -555.47,-503.01 -577.8,-418.37 -1294.85,-516.09 -1611.24,268.02 -121.55,301.22 -214.87,692.14 -214.87,1108.23z"/>
   <path class="fil1" d="M12157.96 14340.85l-407.15 673c389.16,-56.69 881.38,-207.29 1200.57,-357.65 768.35,-361.96 1212.84,-1009.01 1185.71,-1901.61 -10.74,-353.2 -140.91,-1011.5 -240.39,-1300.82 -56.56,-32.78 -233.62,-284.32 -457.79,-95.29 -269.63,227.37 228.15,791.39 120.39,1707 -49.76,422.79 -251.7,676.27 -469.87,854.51 -153.56,125.45 -663.03,411.88 -931.47,420.86z"/>
   <path class="fil1" d="M14501.82 12686.11c-25.38,468.14 -51.22,581.61 -152.53,1002.55 878.79,-189.84 1829.86,-997.68 2040.41,-1789.33 75.68,-284.57 -104.15,-579.25 -363.36,-573.2 -418.27,9.76 -636.02,768.83 -1524.52,1359.98z"/>
   <path class="fil0" d="M8687.34 8772.32c-164.58,58.7 -248.82,272.55 24.27,474.13 154.38,113.96 341.62,187.75 569.14,223.79 456.15,72.26 994.19,-3.97 1282.02,-246.73 165.24,-139.36 216.23,-420.27 -46.03,-462.72 -219.99,-35.62 -489.24,421.32 -1265.27,209.24 -363.29,-99.28 -340.17,-277.59 -564.13,-197.71z"/>
   <path class="fil2" d="M5509.68 7125.94c-113.48,364.3 -374.75,1264.47 -322.72,1672.5l423.1 60.33c169.86,-7.63 124.97,-239.62 172.23,-527.26 33.58,-204.38 77.9,-387.64 129.29,-584.73 39.69,-152.25 296.42,-714.19 -127.93,-738.71 -121.69,-7.04 -158.58,42.59 -254.18,105.48 -4.71,3.09 -12.95,8.68 -19.79,12.39z"/>
   <path class="fil0" d="M7456.84 7798.46c-608.68,138.78 -535.68,492.9 -366.51,582.21 241,127.23 438.89,-284.56 931.77,-85.95 135.81,54.72 228.01,199.78 407.52,66.51 161.6,-119.98 75.85,-305.44 -25.24,-395.69 -202.24,-180.53 -612.45,-243.48 -947.54,-167.08z"/>
   <path class="fil0" d="M11439.65 7424.56c-209.15,105.13 -132.5,552.53 -132.66,805.05 -0.07,126.59 -25.1,320.15 28.11,430.02 48.88,100.94 194.44,171.84 326.79,102.49 225.02,-117.92 103.49,-1212.69 101.27,-1218.76 -39.25,-107.42 -177.77,-192.06 -323.51,-118.8z"/>
  </g>
 </g>
</svg>
